<svg xmlns="http://www.w3.org/2000/svg" viewBox="0 0 479 436" role="img" aria-label="deltadr.ai Logo">
  <path fill="#7FB4A8" d="M 249,2 L 245,0 L 235,0 L 228,4 L 138,164 L 134,174 L 134,181 L 137,188 L 142,193 L 150,196 L 314,196 L 315,197 L 247,272 L 242,283 L 243,291 L 249,299 L 257,302 L 328,302 L 340,305 L 352,311 L 365,325 L 372,343 L 372,361 L 367,376 L 364,381 L 350,394 L 327,402 L 48,402 L 47,401 L 148,218 L 109,218 L 1,412 L 1,426 L 10,435 L 331,436 L 353,431 L 369,423 L 381,414 L 395,397 L 405,373 L 407,361 L 407,342 L 403,324 L 391,301 L 373,284 L 354,274 L 329,268 L 297,267 L 364,192 L 369,182 L 369,176 L 366,169 L 361,164 L 353,161 L 180,161 L 240,53 L 289,140 L 327,140 L 256,10 Z
           M 429,348 L 429,366 L 422,392 L 407,417 L 386,436 L 479,436 Z" />
</svg>
